<?xml version="1.0" encoding="utf-8"?>
<!-- Generator: Adobe Illustrator 20.1.0, SVG Export Plug-In . SVG Version: 6.00 Build 0)  -->
<svg version="1.1" id="Layer_1" xmlns="http://www.w3.org/2000/svg" xmlns:xlink="http://www.w3.org/1999/xlink" x="0px" y="0px"
	 viewBox="0 0 80 80" style="enable-background:new 0 0 80 80;" xml:space="preserve">
<style type="text/css">
	.st0{fill:#00BFB3;}
	.st1{fill:#14A7DF;}
	.st2{fill:#0078A0;}
	.st3{fill:none;}
</style>
<path class="st0" d="M30.9,57.1c-0.3,0-0.7,0-1-0.1c-1.4-0.4-2.5-1.6-2.8-3l-4.8-27c-0.2-1.3,0.2-2.5,1.1-3.3
	c0.9-0.9,2.2-1.3,3.4-1.1h0.1l26.3,5.3c1.4,0.3,2.5,1.3,2.9,2.7s0,2.8-1,3.8L33.6,55.9C33,56.6,32,57.1,30.9,57.1z M30.7,53.1
	C30.7,53.1,30.7,53.2,30.7,53.1L30.7,53.1z M26.3,26.4L31,52.9l21.1-21.3L26.3,26.4z"/>
<ellipse transform="matrix(0.7071 -0.7071 0.7071 0.7071 -4.9965 48.5273)" class="st1" cx="56.1" cy="30.3" rx="6.4" ry="6.4"/>
<ellipse transform="matrix(0.7071 -0.7071 0.7071 0.7071 -30.8029 37.8434)" class="st1" cx="30.3" cy="56.1" rx="6.4" ry="6.4"/>
<ellipse transform="matrix(0.7071 -0.7071 0.7071 0.7071 -9.8954 23.9099)" class="st1" cx="23.9" cy="23.9" rx="6.4" ry="6.4"/>
<path class="st2" d="M56.1,30.4c-0.4-1.3-1.5-2.4-2.9-2.7l-2.7-0.5c-0.7,1.2-0.9,2.6-0.8,3.9l2.3,0.5l-1.7,1.7
	c0.3,0.6,0.7,1.1,1.2,1.6s1.1,0.9,1.7,1.2l1.8-1.9C56.1,33.2,56.5,31.8,56.1,30.4z"/>
<path class="st2" d="M34.8,51.6c-0.4-0.4-0.9-0.8-1.5-1.1L31,52.9l-0.6-3.1c-1.3,0-2.7,0.4-3.9,1.2l0.5,3c0.3,1.5,1.4,2.6,2.8,3
	c0.3,0.1,0.7,0.1,1,0.1c1,0,2-0.4,2.7-1.2l2.5-2.5C35.8,52.8,35.4,52.1,34.8,51.6z"/>
<path class="st2" d="M26.3,26.4l3.2,0.6c0.7-1.2,0.9-2.6,0.8-3.9l-3.4-0.7h-0.1c-1.3-0.2-2.5,0.2-3.4,1.1c-0.9,0.9-1.2,2.1-1.1,3.3
	l0.6,3.3c1.3,0.2,2.7,0,3.9-0.6L26.3,26.4z"/>
<rect class="st3" width="80" height="80"/>
</svg>
